<svg xmlns="http://www.w3.org/2000/svg" xmlns:xlink="http://www.w3.org/1999/xlink" viewBox="0 0 127.5 60"><symbol id="a" viewBox="-63.8 -30 127.5 60"><path fill="#FF6200" d="M13.9 4.9c-.2-1.9-1.6-3.2-5.1-3.2H5.9l1.6 5.8h3c1.8-.1 3.7-.4 3.4-2.6zM63.8 30L51.1-16.7C49.2-24 41.6-30 34.2-30h-97.9L-51 16.6C-49.2 24-41.7 30-34.2 30h98zM-6-4.3c.4 3.4-.9 6.1-5.6 7.9-2.7 1-6.9 1.1-6.6 3.3.3 1.9 2.2 2.3 3.7 2.3 1 0 1.9-.1 2.5-.6.6-.5.9-1.2.7-2.4h8.1c1.1 7-4.1 9.3-10.1 9.3h-1.4C-19 15.1-43 14.4-43 14.4l19.9-2.2-20.6-.4 18.4-2.1-19.2-.5 18.1-1.9-18.8-.7L-26.7 5l-19.1-.9 19.5-1.7-20.2-.9 22-1.5-22.8-1.2L-19-2.4c2.2-.1 4.7-1.3 4.4-3-.2-1.9-2.5-2.8-4.2-2.8-1.4 0-2.5.1-3.1.7-.4.5-.7 1.1-.7 2v.1c.2 2.2.5 2.7.5 2.7L-48-3.5l17-1.1-17.6-1.3L-31.1-7l-18.1-1.4 18.7-1-19.4-1.6 21.2-.8-21.9-1.8s25.3-.5 29.7-.5h.5c6.1 0 13.5 2.9 14.4 9.8zm21.2 19H.9l-7.8-28.5h8.5L4-5.1h5c7.5 0 12.7 4.9 13.5 10.7.9 6.3-2.1 9.1-7.3 9.1zm34.8 0H25.5l-2-7.3h7.8l-5.8-21.2h8.8l5.8 21.2H48l2 7.3z"/></symbol><path fill="#FFF" d="M110.7 44.5H13l4.2-32.2h97.3"/><use xlink:href="#a" width="127.5" height="60" x="-63.8" y="-30" transform="matrix(1 0 0 -1 63.749 29.989)" overflow="visible"/></svg>